PathFileType	4	(X/Y/Z)	Kaydara	
DataRate	CameraRate	NumFrames	NumMarkers	Units	OrigDataRate	OrigDataStartFrame	OrigNumFrames	
60.00	60.00	4	74	mm	60.00	715	195	
Frame#	Time	Y_rasi			Y_rpsi			Y_lpsi			Y_fneck			Y_bneck			Y_fhead			Y_rhead			Y_rshld			Y_relbtop			Y_relbext			Y_relblow			Y_rwrext			Y_rwrtop			Y_rwrlow			Y_lshld			Y_lelbext			Y_lelblow			Y_lelbtop			Y_lwrext			Y_lwrtop			Y_lwrlow			Y_rtopleg			Y_ltopleg			Y_rkneefr			Y_rkneebk			Y_rkneeis			Y_lkneefr			Y_lknssbk			Y_lkneeis			Y_rankfr			Y_rankis			Y_rankbk			Y_lankfr			Y_lankbk			Y_lankis			Y_lhead			Y_lasi			D_rpsi			D_lpsi			D_fneck			D_bneck			D_fhead			D_rhead			D_lhead			D_rshld			D_relbtop			D_relbext			D_relblow			D_rwrext			D_rwrtop			D_rwrlow			D_lshld			D_lelbext			D_lelblow			D_lelbtop			D_lwrext			D_lwrtop			D_lwrlow			D_rtopleg			D_ltopleg			D_rkneefr			D_rkneebk			D_rkneeis			D_lkneefr			D_lknssbk			D_lkneeis			D_rankfr			D_rankis			D_rankbk			D_lankfr			D_lankbk			D_lankis			D_lasi			D_rasi			
		X1	Y1	Z1	X2	Y2	Z2	X3	Y3	Z3	X4	Y4	Z4	X5	Y5	Z5	X6	Y6	Z6	X7	Y7	Z7	X8	Y8	Z8	X9	Y9	Z9	X10	Y10	Z10	X11	Y11	Z11	X12	Y12	Z12	X13	Y13	Z13	X14	Y14	Z14	X15	Y15	Z15	X16	Y16	Z16	X17	Y17	Z17	X18	Y18	Z18	X19	Y19	Z19	X20	Y20	Z20	X21	Y21	Z21	X22	Y22	Z22	X23	Y23	Z23	X24	Y24	Z24	X25	Y25	Z25	X26	Y26	Z26	X27	Y27	Z27	X28	Y28	Z28	X29	Y29	Z29	X30	Y30	Z30	X31	Y31	Z31	X32	Y32	Z32	X33	Y33	Z33	X34	Y34	Z34	X35	Y35	Z35	X36	Y36	Z36	X37	Y37	Z37	X38	Y38	Z38	X39	Y39	Z39	X40	Y40	Z40	X41	Y41	Z41	X42	Y42	Z42	X43	Y43	Z43	X44	Y44	Z44	X45	Y45	Z45	X46	Y46	Z46	X47	Y47	Z47	X48	Y48	Z48	X49	Y49	Z49	X50	Y50	Z50	X51	Y51	Z51	X52	Y52	Z52	X53	Y53	Z53	X54	Y54	Z54	X55	Y55	Z55	X56	Y56	Z56	X57	Y57	Z57	X58	Y58	Z58	X59	Y59	Z59	X60	Y60	Z60	X61	Y61	Z61	X62	Y62	Z62	X63	Y63	Z63	X64	Y64	Z64	X65	Y65	Z65	X66	Y66	Z66	X67	Y67	Z67	X68	Y68	Z68	X69	Y69	Z69	X70	Y70	Z70	X71	Y71	Z71	X72	Y72	Z72	X73	Y73	Z73	X74	Y74	Z74	

49	11.900	-556.32496	1087.40860	-137.57635	-576.42498	1068.77686	-319.46341	-343.50197	1060.80627	-281.69872	-483.31081	1435.37628	-180.84585	-414.97047	1482.67334	-273.53060	-522.30125	1638.11401	-115.45183	-513.73314	1575.51086	-284.21244	-640.42923	1414.86435	-287.54917	-674.26529	1095.98190	-304.78449	-690.07973	1112.69775	-359.59042	-622.31876	1095.06790	-368.58368	-700.18852	830.03281	-309.41675	-729.82468	841.78635	-281.49431	-708.29330	852.95830	-243.78786	-255.52280	1388.80630	-166.38222	-192.89324	1079.17694	-226.22160	-248.62085	1067.53517	-243.73095	-228.33080	1085.37651	-178.01960	-233.49066	827.99011	-153.04391	-219.40966	838.34908	-111.97437	-259.70558	854.97765	-93.38961	-642.48260	913.13828	-270.48962	-290.53362	908.59421	-174.81148	-649.56146	406.68331	-260.65722	-633.99670	452.20875	-336.53507	-553.75046	416.57581	-257.24060	-332.07352	476.97704	-124.21379	-276.37993	493.89542	-225.39982	-394.90604	467.97840	-199.13717	-633.09856	138.61800	-323.38486	-562.03751	133.62936	-340.28103	-605.71732	137.12676	-392.03339	-275.55853	132.73767	-173.04909	-260.32475	129.61259	-241.30003	-332.83966	125.55664	-208.31423	-381.35513	1572.42798	-206.98400	-396.76342	1077.89345	-107.51361	-951.62849	1178.92311	591.80981	-1097.90611	1189.58466	474.22581	-929.11812	1612.54318	457.47646	-1032.78671	1659.65973	511.65333	-855.79979	1795.03769	357.89738	-957.18842	1810.15244	504.24465	-1029.83307	1792.72705	371.39511	-842.94159	1573.95508	587.41028	-803.28438	1203.85986	576.12545	-751.28952	1218.35747	616.44539	-815.33218	1201.22131	659.83879	-705.98778	933.33412	546.70845	-688.20953	948.98598	511.66370	-725.31860	956.56425	481.67343	-1165.99083	1552.98294	383.14514	-1172.01759	1179.90112	332.72045	-1141.61919	1161.79619	402.37354	-1109.08974	1187.91084	328.22296	-1112.99042	933.79112	296.07056	-1091.58173	951.68953	260.10807	-1050.53688	954.01855	283.99401	-839.78271	1040.88051	589.56120	-1109.17801	1031.78581	364.28299	-825.90286	560.36480	480.33192	-840.17746	561.78814	592.71351	-938.34915	547.25716	514.86225	-1015.57625	470.49725	381.75320	-1107.42081	518.28693	429.25621	-1021.92680	503.00568	494.80072	-835.00053	193.94041	551.20754	-910.15747	186.87925	533.62053	-886.04965	185.98082	616.74896	-1058.44467	162.04844	413.75271	-1079.25972	153.10288	489.81117	-995.88692	165.69374	448.94463	-995.87471	1190.97481	346.40514	-832.97882	1184.51706	467.66193 
50	11.917	-557.09339	1087.34230	-138.63577	-575.30701	1068.82492	-320.56129	-342.47765	1060.91476	-280.57083	-483.91045	1435.33447	-180.30605	-414.60548	1482.81006	-272.44442	-522.70405	1637.97318	-114.76391	-513.77594	1575.55298	-283.57000	-639.69475	1414.87869	-288.88254	-673.48984	1096.26259	-306.47833	-688.58261	1112.75269	-361.56105	-620.77301	1095.01572	-369.87061	-699.71710	830.40688	-309.89344	-729.60533	842.42699	-282.32311	-708.21503	853.66196	-244.61166	-256.18505	1388.64212	-163.63522	-193.07526	1079.39796	-224.98583	-248.91115	1067.88101	-242.91079	-228.81878	1084.78134	-176.86871	-232.60380	826.75407	-157.15393	-218.91466	836.34117	-115.73862	-259.19056	852.48871	-96.63372	-641.88080	913.22556	-272.20123	-290.95602	908.44238	-173.11617	-649.83849	406.76235	-261.11664	-633.82977	452.15599	-336.90193	-553.98102	416.50230	-257.18786	-332.72663	476.96400	-124.65292	-276.42807	493.90076	-224.85531	-395.05558	467.90890	-199.08890	-633.08582	138.67366	-323.50994	-562.01591	133.63589	-340.26024	-605.67505	137.09158	-392.06520	-275.58243	132.74538	-172.98330	-260.35141	129.61832	-241.20203	-332.84447	125.55898	-208.30788	-381.55075	1572.51709	-205.98358	-397.98313	1077.70325	-107.18349	-952.94907	1178.87451	592.28016	-1098.21487	1189.56802	474.68098	-929.47174	1612.56836	457.91977	-1033.29552	1659.56879	511.84200	-856.19431	1795.42755	359.00154	-957.88940	1810.05478	505.36263	-1030.27855	1793.12103	372.16747	-843.88649	1573.80768	588.51341	-804.08218	1203.66699	577.54364	-752.43088	1218.21083	618.39874	-816.82205	1201.08719	661.41617	-707.47940	933.32108	548.84422	-688.70483	948.60146	514.49409	-725.47951	956.23604	484.05182	-1165.74463	1552.84531	382.37408	-1170.65781	1179.79942	331.33133	-1140.80124	1161.74866	401.17241	-1107.77420	1187.95303	326.99268	-1110.91957	933.89397	294.72965	-1089.33205	951.92520	258.86551	-1048.39684	954.26575	283.16217	-840.57312	1040.99167	590.42835	-1108.76770	1031.71097	363.56483	-826.29974	560.42278	481.34239	-840.42221	561.79543	593.27812	-938.83881	547.46174	515.56099	-1015.37834	470.46684	381.91818	-1107.44240	518.34290	429.01634	-1022.27402	503.05260	494.94080	-835.19836	194.00333	551.53503	-910.21233	186.86857	533.86883	-886.76712	186.04589	617.14531	-1058.38196	162.03856	413.71529	-1079.37622	153.08052	489.70718	-995.90836	165.68380	449.05109	-995.23315	1191.01051	346.19900	-833.22617	1184.47998	468.76312 
51	11.933	-557.83379	1087.23984	-139.59329	-573.89084	1068.92075	-321.85497	-341.59039	1060.97206	-279.37551	-484.00585	1435.29724	-179.83162	-414.23119	1482.90283	-271.39439	-522.98065	1637.96814	-114.11516	-513.81348	1575.44144	-282.96675	-639.00707	1414.87930	-290.14116	-672.30713	1096.14197	-308.09658	-687.20940	1112.71217	-363.23055	-619.31919	1094.96552	-370.94315	-699.35806	830.75813	-310.29373	-729.38454	843.01941	-283.09647	-708.45276	854.48502	-245.13813	-256.65955	1388.45413	-161.02606	-193.21701	1079.70100	-223.74014	-248.98443	1068.30414	-242.15574	-230.92674	1083.03864	-175.99604	-232.16011	825.56976	-160.92676	-218.34589	834.51584	-119.54576	-258.77958	850.23232	-98.80925	-641.34094	913.49663	-273.81727	-291.30463	908.24982	-171.49736	-650.02762	406.82983	-261.49952	-633.55827	452.05044	-337.21786	-554.22462	416.34804	-257.09021	-333.12969	476.80244	-124.24672	-276.46811	493.87180	-224.30326	-395.19913	467.89330	-199.01833	-633.08537	138.62489	-323.54908	-562.09450	133.58599	-340.09106	-605.65525	137.03673	-392.03617	-275.66261	132.68694	-172.90209	-260.36983	129.63595	-241.08809	-332.86308	125.56132	-208.26492	-381.60149	1572.50519	-205.30148	-399.05571	1077.65045	-106.86975	-953.86436	1178.77594	592.41524	-1098.30589	1189.51561	475.04822	-929.63905	1612.56363	458.23750	-1033.73291	1659.49432	512.05029	-856.60439	1795.81406	359.90479	-958.32977	1810.02823	506.29707	-1030.77126	1793.42056	373.07320	-844.87991	1573.70117	589.71306	-804.95514	1203.48907	578.81653	-753.64067	1218.06915	620.27187	-818.32581	1201.06071	662.61780	-708.30147	932.97913	551.37531	-689.23996	948.26813	517.14348	-725.90736	955.87860	486.42574	-1165.49553	1552.75833	381.58241	-1169.30298	1179.79279	330.00198	-1139.89212	1161.60149	400.00065	-1106.47049	1188.10699	326.15593	-1108.72772	934.07616	293.35508	-1086.94481	952.21664	257.62850	-1046.46149	954.40048	281.71469	-841.14304	1041.13274	591.13987	-1108.19138	1031.64421	362.80109	-826.55113	560.51445	482.21100	-841.20293	561.81034	594.04636	-938.98735	547.11506	515.33318	-1015.11131	470.45975	381.92020	-1107.39700	518.35075	428.62751	-1022.49794	503.10692	495.01907	-835.29633	194.05195	551.85669	-910.28641	186.75615	534.23794	-886.95625	185.96144	617.34337	-1058.28064	162.00329	413.66604	-1079.40269	153.08342	489.59431	-995.83603	165.69721	449.12868	-994.58633	1190.98793	346.17737	-833.23074	1184.44382	469.75147 
52	11.950	-558.47538	1087.13333	-140.48450	-573.82000	1068.84918	-320.72231	-340.77221	1061.03035	-278.06892	-484.42669	1435.31219	-179.18558	-413.88607	1482.93121	-270.33684	-523.40908	1637.95486	-113.49324	-513.95397	1575.38055	-282.29919	-638.38474	1414.81735	-291.23211	-672.28485	1096.50513	-309.03805	-685.85678	1112.74879	-364.74911	-618.08750	1094.83025	-371.83426	-699.14581	831.06926	-310.62704	-729.35753	843.49503	-283.74918	-708.66554	855.16022	-245.69693	-257.15172	1388.23349	-158.45884	-193.52724	1079.98955	-222.49506	-249.05003	1068.74687	-241.46715	-230.81793	1082.99995	-174.86118	-231.19415	824.68765	-164.93414	-217.62264	832.88651	-123.33399	-258.59337	847.58156	-104.26422	-640.77400	913.50029	-275.33733	-292.13303	908.00529	-169.52353	-650.06172	406.86443	-261.90376	-633.09883	451.97899	-337.69703	-554.43264	416.14403	-257.05774	-333.75820	476.65272	-124.02718	-276.50070	493.91567	-223.69860	-395.36232	467.89070	-198.97318	-633.06335	138.60824	-323.69438	-562.18113	133.54153	-339.93347	-605.56416	136.98791	-391.99120	-275.72845	132.68722	-172.76638	-260.40035	129.64958	-240.97116	-332.87495	125.55613	-208.21135	-382.01302	1572.59552	-204.20151	-400.04776	1077.50137	-105.99523	-954.52690	1178.72955	592.46685	-1098.36372	1189.49768	475.41653	-929.77974	1612.59140	458.81638	-1034.19212	1659.37698	512.29092	-857.05269	1796.21902	360.85239	-958.84453	1809.97986	507.08134	-1031.18217	1793.63327	373.80871	-845.75722	1573.69522	590.83733	-805.80986	1203.34091	580.21557	-754.73274	1217.89627	621.84986	-819.97780	1201.00769	663.83804	-709.36180	932.65823	553.86436	-689.88358	947.98164	519.73000	-726.29204	955.46005	488.94520	-1165.26428	1552.70615	380.89729	-1167.94815	1179.75418	328.64479	-1138.84163	1161.47461	398.77014	-1105.06378	1188.25035	325.56412	-1106.35170	934.25125	291.94431	-1084.44794	952.51091	256.33776	-1044.26895	954.86855	280.36938	-842.04941	1040.84320	591.94736	-1107.76863	1031.68633	362.17335	-826.71059	560.68657	482.92892	-841.69540	561.89308	594.80751	-939.21890	547.09782	515.59383	-1014.72763	470.42282	381.99787	-1107.28012	518.37086	428.19393	-1022.57484	503.11432	494.98917	-835.35568	194.06828	552.07222	-910.28488	186.82032	534.28448	-887.02972	185.87826	617.49996	-1058.16620	161.99579	413.57780	-1079.46373	153.10141	489.46171	-995.78651	165.69046	449.20784	-993.91449	1190.99350	346.22070	-833.41362	1184.43108	470.76134 
